<?xml version="1.0" encoding="utf-8"?>
<!-- Generator: Adobe Illustrator 16.0.0, SVG Export Plug-In . SVG Version: 6.00 Build 0)  -->
<!DOCTYPE svg PUBLIC "-//W3C//DTD SVG 1.1//EN" "http://www.w3.org/Graphics/SVG/1.1/DTD/svg11.dtd">
<svg version="1.1" xmlns="http://www.w3.org/2000/svg" xmlns:xlink="http://www.w3.org/1999/xlink" x="0px" y="0px" width="119px"
	 height="96.063px" viewBox="0 0 119 96.063" enable-background="new 0 0 119 96.063" xml:space="preserve">
<g id="Layer_1">
	<g>
		<path fill="#FFFFFF" d="M30.045,27.13l29.441,9.506c0,0-24.242,25.535-26.619,23.77c-2.377-1.766-6.986-7.283-6.986-7.283
			s-2.33-3.311,2.693-8.346c-5.441-5.442-9.779-9.778-9.779-9.778L30.045,27.13z"/>
		<path fill="#A4CFF2" d="M47.621,47.596l0.035-3.294l2.271-4.629c0,0-8.031,3.04-11.896-0.605l5.291,5.291
			c1.051,1.052,1.051,2.757,0,3.81L36.09,55.4c-0.838,0.836-2.197,0.836-3.037,0l-3.898-3.902c-0.811-0.81-0.811-2.119,0-2.928
			l2.053-2.054c1.035-1.035,1.035-2.715,0-3.752l-8.061-8.057l-2.662,1.981l8.09,8.088c-5.012,4.47-2.693,8.346-2.693,8.346
			s5.242,5.54,6.986,7.283C34.611,62.149,47.621,47.596,47.621,47.596z"/>
		<path fill="#4C4372" d="M33.838,62.742c-0.35,0-0.697-0.134-0.963-0.399l-7.055-7.055c-2.67-2.67-2.67-7.016,0-9.688l0.824-0.823
			l-7.004-7.004c-0.533-0.533-0.533-1.397,0-1.931c0.531-0.532,1.396-0.532,1.928,0l7.969,7.968c0.258,0.258,0.4,0.604,0.4,0.967
			c0,0.361-0.143,0.707-0.4,0.963l-1.787,1.789c-1.607,1.608-1.607,4.223,0,5.83l7.053,7.054c0.533,0.533,0.533,1.396,0,1.93
			C34.537,62.608,34.188,62.742,33.838,62.742z"/>
		<g>
			<path fill="#FFFFFF" d="M52.98,93.995c-0.527,0.527-1.236,0.757-1.926,0.691c-0.533-0.052-1.055-0.281-1.465-0.691l-0.459-0.459
				l-2.82-2.819c-0.936-0.936-0.936-2.454,0-3.39l0.148-0.148c-0.637,0.636-1.52,0.875-2.342,0.715
				c-0.082-0.016-0.162-0.035-0.242-0.06c-0.162-0.048-0.32-0.113-0.471-0.19c-0.227-0.119-0.439-0.274-0.631-0.465l-0.277-0.277
				l-3.289-3.289c-1.018-1.019-1.018-2.67,0-3.687c-0.057,0.057-0.115,0.11-0.176,0.159c-0.016,0.014-0.033,0.027-0.047,0.039
				c-0.057,0.045-0.113,0.087-0.172,0.126c-0.006,0.003-0.012,0.009-0.018,0.012c-0.063,0.041-0.127,0.078-0.191,0.114
				c-0.021,0.01-0.041,0.021-0.063,0.031c-0.051,0.026-0.105,0.053-0.16,0.075c-0.016,0.005-0.031,0.014-0.047,0.02
				c-0.064,0.026-0.129,0.048-0.193,0.068c-0.027,0.009-0.055,0.017-0.082,0.023c-0.045,0.013-0.09,0.024-0.137,0.032
				c-0.029,0.008-0.059,0.013-0.088,0.02c-0.059,0.011-0.117,0.02-0.178,0.025c-0.037,0.005-0.072,0.008-0.109,0.008
				c-0.045,0.004-0.092,0.006-0.139,0.007c-0.055,0.001-0.109-0.001-0.166-0.003c-0.027-0.001-0.055-0.003-0.082-0.004
				c-0.041-0.002-0.084-0.008-0.125-0.013c-0.027-0.003-0.053-0.007-0.08-0.011c-0.525-0.084-1.029-0.325-1.434-0.729l-3.566-3.565
				c-1.018-1.019-1.018-2.668,0-3.686c-1.018,1.018-2.668,1.018-3.686,0l-0.246-0.246l-3.32-3.32c-1.018-1.019-1.018-2.668,0-3.686
				l23.908-23.909c4.387-4.386,11.5-4.386,15.887,0l12.205,12.205c4.344,4.345,4.393,11.374,0.109,15.778L52.98,93.995z"/>
			<path fill="#D3E6F8" d="M31.955,72.676l11.826-11.825"/>
			<path fill="#D3E6F8" d="M39.207,79.926l11.826-11.825"/>
			<path fill="#D3E6F8" d="M46.459,87.179l11.826-11.825"/>
		</g>
		<path fill="#A4CFF2" d="M57.346,84.482l2.383,2.381l-8.49,8.489l-2.383-2.381L57.346,84.482z"/>
		<path fill="#A4CFF2" d="M45.27,88.336l-2.908-1.857l11.805-11.805c1.316-1.315,3.449-1.315,4.766,0L45.27,88.336z"/>
		<path fill="#A4CFF2" d="M38.082,81.149l-2.906-1.857L46.98,67.486c1.314-1.315,3.447-1.315,4.764,0L38.082,81.149z"/>
		<path fill="#A4CFF2" d="M30.701,73.767l-2.908-1.856l11.805-11.805c1.316-1.315,3.449-1.315,4.766,0L30.701,73.767z"/>
		<path fill="#FFFFFF" d="M54.617,30.567l5.193-6.076c0,0,1.285-1.601,5.568,0c4.287,1.6,8.248,4.363,11.17,1.442
			c2.92-2.92,7.664-7.782,7.664-7.782l17.246,16.962l-11.035,9.738c0,0,4.768,3.784,3.107,7.428
			c-1.66,3.645-10.127,9.745-10.127,9.745L54.617,30.567z"/>
		<path fill="#A4CFF2" d="M88.604,52.186l-5.371,5.372l3.514,1.876l6.785-7.154c0,0-0.146-5.936-3.107-7.428
			c6.088-6.36,6.088-6.36,6.088-6.36l4.65-4.652c1.018-1.016,1.018-2.667,0-3.685l-0.246-0.244l-13.982,13.98
			c-0.914,0.916-0.914,2.398,0,3.313l1.672,1.671C89.52,49.788,89.52,51.271,88.604,52.186z"/>
		<path fill="#4C4372" d="M82.418,65.559c-0.348,0-0.697-0.133-0.965-0.398c-0.533-0.533-0.533-1.397,0-1.931l9.797-9.796
			c1.607-1.606,1.607-4.222,0-5.828l-1.789-1.79c-0.256-0.255-0.398-0.603-0.398-0.964c0-0.362,0.143-0.709,0.398-0.965l7.969-7.97
			c0.533-0.532,1.396-0.532,1.928,0c0.533,0.533,0.533,1.397,0,1.929l-7.002,7.004l0.824,0.827c2.67,2.67,2.67,7.016,0,9.685
			l-9.797,9.799C83.115,65.426,82.768,65.559,82.418,65.559z"/>
		<path fill="#4C4372" d="M51.561,38.817c-0.35,0-0.699-0.135-0.965-0.4c-0.889-0.887-1.375-2.066-1.375-3.32
			s0.488-2.434,1.375-3.319l8.25-8.25c1.297-1.298,3.246-1.721,4.963-1.079l8.598,3.211c1.1,0.41,2.348,0.139,3.178-0.691
			l5.568-5.566c0.533-0.532,1.396-0.532,1.93,0c0.531,0.532,0.531,1.396,0,1.929l-5.568,5.567c-1.584,1.584-3.963,2.101-6.061,1.317
			l-8.598-3.211c-0.721-0.269-1.537-0.091-2.08,0.452l-8.25,8.251c-0.373,0.37-0.576,0.864-0.576,1.39s0.203,1.021,0.576,1.392
			c0.531,0.533,0.531,1.396,0,1.929C52.258,38.683,51.908,38.817,51.561,38.817z"/>
		<path fill="#FD919E" d="M105.932,37.907l10.467-10.467c1.732-1.731,1.732-4.541,0-6.273L98.139,2.906
			c-1.861-1.861-4.879-1.861-6.742,0l-9.998,9.999c-1.861,1.861-1.861,4.881,0,6.741l18.26,18.261
			C101.391,39.639,104.199,39.639,105.932,37.907z"/>
		<path fill="#E8677D" d="M115.902,20.67l0.496,0.497c1.732,1.732,1.732,4.542,0,6.273l-10.467,10.467
			c-1.732,1.732-4.541,1.732-6.273,0l-0.496-0.497L115.902,20.67z"/>
		<path fill="#4C4372" d="M102.795,40.506c-1.523,0-3.047-0.579-4.207-1.74L80.307,20.483c-1.125-1.124-1.744-2.618-1.744-4.208
			c0-1.588,0.619-3.082,1.744-4.207L90.559,1.815c2.32-2.32,6.098-2.32,8.416,0l1.914,1.913l16.367,16.366
			c1.125,1.124,1.744,2.619,1.744,4.209s-0.619,3.083-1.744,4.208l-10.252,10.252C105.842,39.926,104.318,40.506,102.795,40.506z
			 M94.768,2.802c-0.824,0-1.65,0.314-2.279,0.942L82.234,13.998c-0.607,0.607-0.943,1.418-0.943,2.277
			c0,0.861,0.336,1.671,0.943,2.279l18.281,18.283c1.258,1.256,3.303,1.256,4.559,0l10.254-10.254
			c0.607-0.608,0.943-1.419,0.943-2.279c0-0.861-0.336-1.67-0.943-2.278L97.047,3.744C96.418,3.116,95.592,2.802,94.768,2.802z"/>
		<path fill="#FFFFFF" d="M13.066,37.833L2.602,27.366c-1.732-1.732-1.732-4.541,0-6.273l18.26-18.26
			c1.861-1.862,4.879-1.862,6.74,0l10,9.998c1.861,1.86,1.861,4.879,0,6.741L19.34,37.833
			C17.607,39.565,14.799,39.565,13.066,37.833z"/>
		<path fill="#D3E6F8" d="M3.096,20.597l-0.494,0.496c-1.732,1.732-1.732,4.541,0,6.273l10.465,10.468
			c1.732,1.731,4.541,1.731,6.273,0l0.498-0.497L3.096,20.597z"/>
		<path fill="#4C4372" d="M51.287,96.063c-0.119,0-0.24-0.006-0.361-0.019c-0.867-0.082-1.684-0.469-2.301-1.084l-3.277-3.28
			c-0.666-0.666-1.029-1.519-1.092-2.391c-0.133-0.011-0.264-0.03-0.396-0.056c-0.127-0.024-0.25-0.055-0.371-0.092
			c-0.248-0.072-0.49-0.172-0.719-0.29c-0.354-0.187-0.676-0.425-0.961-0.709l-3.566-3.565c-0.686-0.685-1.088-1.576-1.152-2.534
			c-0.012-0.001-0.021-0.002-0.033-0.003c-0.066-0.005-0.129-0.012-0.191-0.02c-0.045-0.007-0.084-0.013-0.123-0.019
			c-0.834-0.132-1.59-0.517-2.186-1.11l-3.564-3.566c-0.686-0.685-1.09-1.575-1.154-2.533c-0.957-0.063-1.848-0.468-2.531-1.154
			l-3.568-3.565c-0.748-0.752-1.162-1.747-1.162-2.808c0-1.06,0.414-2.058,1.162-2.808l23.91-23.906
			c0.531-0.533,1.396-0.533,1.928,0c0.533,0.532,0.533,1.396,0,1.929L25.67,66.387c-0.236,0.235-0.365,0.548-0.365,0.88
			c0,0.331,0.129,0.645,0.365,0.878l3.564,3.565c0.234,0.235,0.545,0.363,0.879,0.363c0.332,0,0.643-0.128,0.879-0.363
			c0.531-0.532,1.396-0.532,1.93,0c0.266,0.268,0.398,0.616,0.398,0.966c0,0.349-0.133,0.698-0.4,0.962
			c-0.234,0.237-0.363,0.548-0.363,0.88c0,0.331,0.129,0.643,0.363,0.878l3.566,3.565c0.234,0.233,0.498,0.316,0.682,0.346
			l0.041,0.006c0.016,0.002,0.037,0.004,0.061,0.007l0.023,0.002c0.027,0,0.057,0.002,0.086,0.001
			c0.027-0.001,0.051-0.001,0.078-0.003l0.049-0.005c0.027-0.002,0.059-0.006,0.088-0.012c0,0,0.031-0.008,0.033-0.009
			c0.029-0.006,0.051-0.011,0.074-0.017l0.035-0.01c0.027-0.008,0.053-0.018,0.08-0.028l0.033-0.014
			c0.027-0.012,0.053-0.023,0.078-0.037l0.023-0.012c0.029-0.017,0.055-0.03,0.08-0.044c0.012-0.01,0.023-0.018,0.035-0.025
			c0.014-0.01,0.041-0.031,0.068-0.051l0.027-0.023c0.023-0.021,0.053-0.045,0.082-0.073c0.533-0.532,1.396-0.532,1.928,0.002
			c0.531,0.532,0.531,1.396,0,1.929c0,0,0,0.001-0.002,0.001v0.001c-0.482,0.483-0.482,1.271,0.002,1.754l3.564,3.565
			c0.09,0.091,0.191,0.166,0.303,0.224c0.07,0.037,0.145,0.068,0.223,0.091c0.039,0.01,0.078,0.021,0.117,0.027
			c0.404,0.08,0.824-0.048,1.115-0.341c0.533-0.531,1.396-0.531,1.928,0c0.533,0.534,0.533,1.397,0.002,1.93h-0.002l-0.146,0.148
			c-0.402,0.403-0.402,1.058,0,1.461l3.279,3.278c0.217,0.217,0.463,0.282,0.631,0.298c0.309,0.03,0.611-0.078,0.828-0.298
			l23.82-24.484c0.525-0.541,1.389-0.552,1.93-0.028c0.539,0.526,0.551,1.391,0.025,1.93L53.957,94.946
			C53.234,95.67,52.281,96.063,51.287,96.063z"/>
		<path fill="#4C4372" d="M31.955,74.038c-0.348,0-0.697-0.133-0.963-0.4c-0.535-0.532-0.535-1.395,0-1.929l11.824-11.824
			c0.533-0.533,1.396-0.533,1.93,0s0.533,1.396,0,1.929L32.922,73.638C32.654,73.905,32.305,74.038,31.955,74.038z"/>
		<path fill="#4C4372" d="M39.207,81.291c-0.348,0-0.697-0.133-0.965-0.399c-0.531-0.533-0.531-1.397,0-1.93l11.826-11.825
			c0.533-0.533,1.398-0.533,1.93,0c0.533,0.532,0.533,1.396,0,1.929L40.172,80.892C39.906,81.158,39.557,81.291,39.207,81.291z"/>
		<path fill="#4C4372" d="M46.459,88.542c-0.348,0-0.697-0.134-0.965-0.399c-0.531-0.532-0.531-1.396,0-1.93L57.32,74.388
			c0.533-0.533,1.396-0.533,1.928,0c0.533,0.534,0.533,1.396,0,1.93L47.424,88.143C47.158,88.408,46.809,88.542,46.459,88.542z"/>
		<path fill="#FFFFFF" d="M85.756,72.332L73.803,60.38c-1.018-1.018-1.018-2.667,0-3.686l3.564-3.566
			c1.018-1.018,2.67-1.018,3.688,0l11.951,11.953c1.018,1.018,1.018,2.668,0,3.685l-3.566,3.566
			C88.424,73.351,86.773,73.351,85.756,72.332z"/>
		<path fill="#A4CFF2" d="M74.047,56.449l-0.244,0.245c-1.018,1.019-1.018,2.668,0,3.686l11.953,11.952
			c1.018,1.019,2.668,1.019,3.686,0l0.244-0.244L74.047,56.449z"/>
		<path fill="#4C4372" d="M87.598,74.459c-1.016,0-2.033-0.388-2.807-1.162L72.838,61.344c-0.75-0.749-1.162-1.746-1.162-2.806
			c0-1.062,0.412-2.059,1.162-2.808l3.566-3.567c1.547-1.547,4.066-1.547,5.615,0l11.953,11.953c0.748,0.75,1.162,1.747,1.162,2.808
			c0,1.059-0.414,2.057-1.162,2.808l-3.568,3.565C89.631,74.071,88.615,74.459,87.598,74.459z M86.719,71.368
			c0.484,0.484,1.271,0.484,1.758,0l3.564-3.565c0.236-0.235,0.365-0.548,0.365-0.879c0-0.333-0.129-0.645-0.363-0.879L80.09,54.092
			c-0.484-0.483-1.273-0.483-1.758,0l-3.564,3.566c-0.234,0.235-0.365,0.546-0.365,0.879c0,0.332,0.131,0.643,0.365,0.877
			L86.719,71.368z"/>
		<path fill="#FFFFFF" d="M78.502,79.584L66.551,67.632c-1.018-1.018-1.018-2.669,0-3.687l3.566-3.565
			c1.016-1.018,2.668-1.018,3.686,0l11.953,11.952c1.018,1.019,1.018,2.669,0,3.687l-3.566,3.565
			C81.172,80.602,79.52,80.602,78.502,79.584z"/>
		<path fill="#A4CFF2" d="M66.551,63.945c-1.018,1.018-1.018,2.669,0,3.687l11.951,11.952c0.689,0.688,1.666,0.909,2.543,0.667
			l1.166-1.168L66.813,63.685L66.551,63.945z"/>
		<path fill="#4C4372" d="M80.346,81.711c-1.061,0-2.057-0.413-2.807-1.163L65.586,68.595c-1.547-1.547-1.547-4.064,0-5.613
			l3.566-3.567c0.75-0.749,1.746-1.163,2.807-1.163s2.059,0.414,2.809,1.163l11.951,11.954c0.75,0.749,1.164,1.746,1.164,2.807
			c0,1.06-0.414,2.059-1.164,2.809l-3.564,3.564C82.404,81.298,81.406,81.711,80.346,81.711z M71.959,60.979
			c-0.332,0-0.643,0.131-0.879,0.364l-3.564,3.566c-0.484,0.484-0.484,1.272,0,1.756l11.951,11.952
			c0.234,0.235,0.547,0.365,0.879,0.365s0.645-0.13,0.879-0.365l3.566-3.564c0.234-0.234,0.363-0.547,0.363-0.879
			s-0.129-0.645-0.363-0.878L72.838,61.344C72.604,61.11,72.291,60.979,71.959,60.979z"/>
		<path fill="#FFFFFF" d="M71.252,86.837L59.299,74.885c-1.018-1.019-1.018-2.669,0-3.688l3.566-3.565
			c1.018-1.018,2.668-1.018,3.686,0l11.951,11.952c1.018,1.018,1.018,2.669,0,3.686l-3.564,3.567
			C73.918,87.854,72.27,87.854,71.252,86.837z"/>
		<path fill="#A4CFF2" d="M59.574,70.922l-0.275,0.275c-1.018,1.019-1.018,2.669,0,3.688l11.953,11.952
			c1.018,1.018,2.666,1.018,3.686,0l0.275-0.277L59.574,70.922z"/>
		<path fill="#4C4372" d="M73.094,88.963c-1.016,0-2.033-0.388-2.807-1.162L58.336,75.848c-0.752-0.749-1.164-1.746-1.164-2.808
			c0-1.061,0.412-2.057,1.164-2.806l3.564-3.568c0.75-0.748,1.746-1.162,2.807-1.162s2.059,0.414,2.809,1.162l11.951,11.952
			c1.549,1.551,1.549,4.069,0,5.617l-3.564,3.565C75.127,88.573,74.111,88.963,73.094,88.963z M64.707,68.232
			c-0.33,0-0.645,0.129-0.877,0.362l-3.566,3.567c-0.234,0.235-0.365,0.546-0.365,0.878c0,0.333,0.131,0.644,0.365,0.879
			L72.215,85.87c0.484,0.485,1.273,0.485,1.758,0l3.566-3.565c0.484-0.484,0.484-1.273,0-1.757L65.586,68.595
			C65.352,68.361,65.039,68.232,64.707,68.232z"/>
		<path fill="#FFFFFF" d="M64.73,93.653L53.738,82.661c-0.936-0.937-0.936-2.453,0-3.391l3.279-3.278
			c0.936-0.937,2.453-0.937,3.391,0L71.4,86.983c0.936,0.937,0.936,2.455,0,3.39l-3.281,3.28
			C67.184,94.589,65.666,94.589,64.73,93.653z"/>
		<path fill="#A4CFF2" d="M54.199,78.812l-0.461,0.46c-0.936,0.937-0.938,2.453,0,3.39L64.73,93.653
			c0.936,0.936,2.453,0.936,3.389,0l0.461-0.461L54.199,78.812z"/>
		<path fill="#4C4372" d="M66.424,95.719c-1.002,0-1.947-0.391-2.658-1.103L52.773,83.625c-1.467-1.466-1.467-3.851,0-5.317
			l3.279-3.279c0.711-0.711,1.656-1.103,2.66-1.103c1.006,0,1.949,0.392,2.658,1.103l10.992,10.99c1.467,1.468,1.467,3.854,0,5.32
			l-3.279,3.279C68.373,95.328,67.43,95.719,66.424,95.719z M58.713,76.655c-0.275,0-0.535,0.105-0.73,0.302l-3.279,3.278
			c-0.402,0.403-0.402,1.058,0,1.46l10.992,10.992c0.195,0.195,0.453,0.304,0.729,0.304c0.277,0,0.537-0.108,0.732-0.304
			l3.277-3.277c0.404-0.404,0.404-1.061,0-1.463l-10.99-10.99C59.248,76.761,58.988,76.655,58.713,76.655z"/>
		<path fill="#FFFFFF" d="M39.361,39.75c0,0,8.346,2.381,12.875-1.984c-5.047,5.859-7.852,9.658-1.369,15.428
			c2.223-1.466,2.223-1.466,2.223-1.466l14.701-15.459c0,0,1.131-1.486-0.352-3.602c-1.482-2.114-8.25-8.25-8.25-8.25
			s-1.131-1.658-5.316-0.095c-4.223,1.575-8.885,3.382-8.885,3.382l-6.43-5.736c0,0-1.283-2.068-2.99-0.363
			c-1.705,1.706-8.176,8.176-8.176,8.176L39.361,39.75z"/>
		<path fill="#4C4372" d="M51.246,54.243c-0.813,0-1.574-0.315-2.146-0.889c-1.902-1.901-2.949-4.431-2.949-7.12
			c0-2.688,1.047-5.216,2.949-7.118l3.953-3.953c0.533-0.533,1.396-0.533,1.93,0s0.533,1.396,0,1.93l-3.955,3.954
			c-1.387,1.385-2.15,3.229-2.15,5.188c0,1.961,0.764,3.805,2.15,5.19c0.074,0.075,0.16,0.091,0.219,0.091
			c0.057,0,0.143-0.016,0.217-0.091l15.012-15.013c0.371-0.37,0.576-0.864,0.576-1.389c0-0.526-0.205-1.021-0.576-1.393l-8.25-8.249
			c-0.543-0.545-1.359-0.722-2.078-0.453l-8.6,3.212c-2.098,0.784-4.477,0.268-6.061-1.316l-5.568-5.568
			c-0.531-0.534-0.531-1.396,0-1.929c0.533-0.533,1.396-0.533,1.93,0l5.566,5.568c0.832,0.83,2.078,1.102,3.178,0.689l8.6-3.213
			c1.717-0.642,3.666-0.216,4.963,1.08l8.25,8.25c0.887,0.887,1.375,2.066,1.375,3.321c0,1.254-0.488,2.433-1.375,3.318
			L53.393,53.354C52.818,53.928,52.055,54.243,51.246,54.243z"/>
		<path fill="#4C4372" d="M43.92,42.257c-3.045,0-5.816-1.189-8.154-3.525c-0.533-0.533-0.533-1.398,0-1.931
			c0.531-0.532,1.396-0.532,1.928,0c6.021,6.021,13.443,0.229,13.756-0.021c0.586-0.469,1.445-0.376,1.916,0.213
			c0.471,0.588,0.377,1.442-0.209,1.914c-0.096,0.077-2.4,1.912-5.65,2.831C46.277,42.084,45.08,42.257,43.92,42.257z"/>
		<path fill="#4C4372" d="M16.203,40.43c-1.523,0-3.047-0.58-4.207-1.741L1.742,28.438C0.619,27.314,0,25.819,0,24.229
			c0-1.59,0.619-3.084,1.742-4.208L18.111,3.652l1.912-1.911c2.32-2.321,6.096-2.321,8.416,0l10.254,10.253
			c1.125,1.124,1.744,2.617,1.744,4.208c0,1.589-0.619,3.084-1.744,4.208L20.412,38.689C19.252,39.851,17.729,40.43,16.203,40.43z
			 M20.039,5.583L3.672,21.951c-0.609,0.608-0.943,1.418-0.943,2.278c0,0.861,0.334,1.67,0.943,2.279l10.254,10.253
			c1.256,1.257,3.301,1.256,4.557,0l18.281-18.28c0.609-0.609,0.945-1.419,0.945-2.279c0-0.861-0.336-1.67-0.945-2.279L26.512,3.669
			c-1.258-1.257-3.303-1.257-4.559,0L20.039,5.583z"/>
	</g>
</g>
<g id="Layer_2">
</g>
<g id="Layer_3">
</g>
<g id="Layer_4">
</g>
<g id="Layer_5">
</g>
</svg>
