<?xml version="1.0" encoding="utf-8"?>
<!-- Generator: Adobe Illustrator 16.0.0, SVG Export Plug-In . SVG Version: 6.00 Build 0)  -->
<!DOCTYPE svg PUBLIC "-//W3C//DTD SVG 1.1//EN" "http://www.w3.org/Graphics/SVG/1.1/DTD/svg11.dtd">
<svg version="1.1" xmlns="http://www.w3.org/2000/svg" xmlns:xlink="http://www.w3.org/1999/xlink" x="0px" y="0px"
	 width="92.488px" height="103.761px" viewBox="0 0 92.488 103.761" enable-background="new 0 0 92.488 103.761"
	 xml:space="preserve">
<g id="Layer_1">
	<g>
		<g>
			<path fill="#FD919E" d="M51.012,61.296H36.467v6.298l3.637,6.298h-3.637v24.01c0,2.581,2.092,4.67,4.672,4.67h5.201
				c2.58,0,4.672-2.09,4.672-4.67v-24.01h-3.637l3.637-6.298V61.296z"/>
			<path fill="#E8677D" d="M36.467,73.892h7.273v28.681h2.602c2.578,0,4.67-2.09,4.67-4.67v-24.01h-3.637l3.637-6.298H36.467
				l3.637,6.298H36.467z"/>
			<path fill="#FFFFFF" d="M46.158,7.605L43.74,1.188l-2.42,6.417v53.69h4.838V7.605z"/>
			<g>
				<path fill="#4C4372" d="M46.342,103.761h-5.203c-3.23,0-5.857-2.629-5.857-5.859v-24.01c0-0.655,0.531-1.188,1.188-1.188h14.543
					c0.656,0,1.188,0.533,1.188,1.188v24.01C52.199,101.132,49.572,103.761,46.342,103.761z M37.656,75.079v22.823
					c0,1.919,1.561,3.482,3.482,3.482h5.201c1.922,0,3.484-1.563,3.484-3.482V75.079H37.656z"/>
				<path fill="#4C4372" d="M47.375,75.079h-7.271c-0.424,0-0.816-0.226-1.029-0.594l-3.635-6.297
					c-0.105-0.182-0.158-0.386-0.158-0.594v-6.298c0-0.656,0.531-1.188,1.188-1.188h14.543c0.656,0,1.188,0.531,1.188,1.188v6.298
					c0,0.208-0.055,0.412-0.158,0.594l-3.635,6.297C48.191,74.854,47.801,75.079,47.375,75.079z M40.791,72.703h5.898l3.135-5.427
					v-4.794H37.656v4.794L40.791,72.703z"/>
				<path fill="#4C4372" d="M43.74,103.761c-0.656,0-1.189-0.531-1.189-1.188V73.892c0-0.655,0.533-1.188,1.189-1.188
					s1.188,0.533,1.188,1.188v28.681C44.928,103.229,44.396,103.761,43.74,103.761z"/>
				<path fill="#4C4372" d="M46.158,62.482H41.32c-0.656,0-1.189-0.53-1.189-1.187V7.605c0-0.142,0.027-0.284,0.078-0.419
					l2.42-6.417c0.174-0.464,0.617-0.769,1.111-0.769s0.936,0.305,1.111,0.769l2.42,6.417c0.051,0.135,0.076,0.277,0.076,0.419
					v53.69C47.348,61.952,46.814,62.482,46.158,62.482z M42.508,60.108h2.463V7.823l-1.23-3.267l-1.232,3.267V60.108z"/>
				<path fill="#4C4372" d="M51.012,68.781H36.467c-0.654,0-1.188-0.531-1.188-1.188s0.533-1.188,1.188-1.188h14.545
					c0.656,0,1.188,0.532,1.188,1.188S51.668,68.781,51.012,68.781z"/>
			</g>
			<path fill="#E8D1DF" d="M83.578,77.67V26.091c4.576-2.275,7.721-6.995,7.721-12.451S88.154,3.465,83.578,1.188v8.795
				c0,3.412-2.766,6.18-6.18,6.18s-6.18-2.768-6.18-6.18V1.188c-4.574,2.276-7.721,6.995-7.721,12.451
				c0,5.457,3.146,10.177,7.721,12.451V77.67c-4.574,2.275-7.721,6.995-7.721,12.451s3.146,10.176,7.721,12.451v-8.795
				c0-3.412,2.766-6.18,6.18-6.18s6.18,2.768,6.18,6.18v8.795c4.576-2.275,7.721-6.995,7.721-12.451S88.154,79.944,83.578,77.67z"/>
			<path fill="#CC9ABA" d="M78.949,27.914v47.777c0,1.941,0.887,3.788,2.432,4.959c3.729,2.833,9.689,9.75,2.197,21.921
				c4.576-2.275,7.721-6.995,7.721-12.451s-3.145-10.177-7.721-12.451V26.091c4.576-2.275,7.721-6.995,7.721-12.451
				S88.154,3.465,83.578,1.188c0,0,9.254,10.944-2.639,22.143C79.676,24.523,78.949,26.177,78.949,27.914z"/>
			<path fill="#4C4372" d="M83.578,103.761c-0.217,0-0.436-0.06-0.625-0.179c-0.35-0.216-0.563-0.599-0.563-1.01v-8.795
				c0-2.753-2.24-4.991-4.992-4.991s-4.99,2.238-4.99,4.991v8.795c0,0.411-0.213,0.794-0.564,1.01
				c-0.348,0.218-0.785,0.238-1.154,0.055c-5.168-2.572-8.379-7.75-8.379-13.516c0-5.517,2.939-10.495,7.721-13.167V26.807
				c-4.781-2.67-7.721-7.649-7.721-13.167c0-5.766,3.211-10.946,8.379-13.516c0.369-0.183,0.807-0.162,1.154,0.055
				c0.352,0.216,0.564,0.599,0.564,1.01v8.795c0,2.751,2.238,4.99,4.99,4.99s4.992-2.239,4.992-4.99V1.188
				c0-0.411,0.213-0.794,0.563-1.01c0.35-0.218,0.785-0.237,1.154-0.055c5.168,2.57,8.381,7.75,8.381,13.516
				c0,5.518-2.941,10.497-7.723,13.167v50.147c4.781,2.672,7.723,7.65,7.723,13.167c0,5.766-3.213,10.943-8.381,13.516
				C83.939,103.721,83.76,103.761,83.578,103.761z M70.031,3.277c-3.338,2.362-5.346,6.179-5.346,10.362
				c0,4.857,2.707,9.222,7.063,11.389c0.404,0.2,0.658,0.611,0.658,1.063V77.67c0,0.45-0.254,0.864-0.658,1.063
				c-4.355,2.166-7.063,6.53-7.063,11.388c0,4.184,2.006,8,5.346,10.362v-6.706c0-4.063,3.305-7.368,7.367-7.368
				s7.367,3.305,7.367,7.368v6.706c3.34-2.362,5.346-6.179,5.346-10.362c0-4.857-2.705-9.222-7.063-11.388
				c-0.404-0.199-0.658-0.613-0.658-1.063V26.091c0-0.451,0.254-0.863,0.658-1.063c4.357-2.167,7.063-6.531,7.063-11.389
				c0-4.184-2.006-8-5.346-10.362v6.706c0,4.063-3.305,7.368-7.367,7.368s-7.367-3.305-7.367-7.368V3.277z"/>
			<path fill="#A2F9AF" d="M20.838,70.805H5.943c-2.627,0-4.754-2.129-4.754-4.756c0-2.624,2.129-4.753,4.754-4.753h14.895
				c2.627,0,4.756,2.129,4.756,4.753C25.594,68.676,23.463,70.805,20.838,70.805z"/>
			<path fill="#7FD38E" d="M20.838,61.296h-3.67v9.509h3.67c2.627,0,4.756-2.129,4.756-4.756
				C25.594,63.425,23.463,61.296,20.838,61.296z"/>
			<path fill="#7FD38E" d="M9.613,70.805h7.555v31.768H9.613V70.805z"/>
			<path fill="#4C4372" d="M20.838,71.991H5.943C2.666,71.991,0,69.326,0,66.049c0-3.275,2.666-5.94,5.943-5.94h14.895
				c3.277,0,5.943,2.665,5.943,5.94C26.781,69.326,24.115,71.991,20.838,71.991z M5.943,62.483c-1.967,0-3.566,1.601-3.566,3.565
				c0,1.967,1.6,3.567,3.566,3.567h14.895c1.967,0,3.566-1.601,3.566-3.567c0-1.965-1.6-3.565-3.566-3.565H5.943z"/>
			<path fill="#4C4372" d="M17.168,103.761H9.613c-0.656,0-1.189-0.531-1.189-1.188V70.805c0-0.657,0.533-1.188,1.189-1.188h7.555
				c0.656,0,1.188,0.531,1.188,1.188v31.768C18.355,103.229,17.824,103.761,17.168,103.761z M10.801,101.384h5.18V71.991h-5.18
				V101.384z"/>
			<path fill="#4C4372" d="M9.613,80.14c-0.498,0-0.961-0.314-1.127-0.813c-0.207-0.621,0.129-1.295,0.752-1.502l7.555-2.515
				c0.623-0.207,1.295,0.13,1.502,0.751c0.207,0.624-0.129,1.297-0.752,1.503l-7.555,2.516C9.863,80.121,9.738,80.14,9.613,80.14z"
				/>
			<path fill="#4C4372" d="M9.613,88.29c-0.498,0-0.961-0.315-1.127-0.814c-0.207-0.622,0.129-1.295,0.752-1.502l7.555-2.516
				c0.623-0.209,1.295,0.128,1.502,0.753c0.207,0.621-0.129,1.294-0.752,1.502l-7.555,2.515C9.863,88.269,9.738,88.29,9.613,88.29z"
				/>
		</g>
	</g>
</g>
<g id="Layer_2">
</g>
<g id="Layer_3">
</g>
<g id="Layer_4">
</g>
<g id="Layer_5">
</g>
</svg>
