<?xml version="1.0" encoding="utf-8"?>
<!-- Generator: Adobe Illustrator 16.0.0, SVG Export Plug-In . SVG Version: 6.00 Build 0)  -->
<!DOCTYPE svg PUBLIC "-//W3C//DTD SVG 1.1//EN" "http://www.w3.org/Graphics/SVG/1.1/DTD/svg11.dtd">
<svg version="1.1" xmlns="http://www.w3.org/2000/svg" xmlns:xlink="http://www.w3.org/1999/xlink" x="0px" y="0px"
	 width="87.962px" height="100.892px" viewBox="0 0 87.962 100.892" enable-background="new 0 0 87.962 100.892"
	 xml:space="preserve">
<g id="Layer_1">
	<g>
		<g>
			<g>
				<path fill="#7FD38E" d="M35.134,48.217h37.939v38.532H35.134V48.217z"/>
				<path fill="#4C4372" d="M73.073,87.903H35.134c-0.639,0-1.154-0.517-1.154-1.154V48.217c0-0.637,0.516-1.154,1.154-1.154h37.939
					c0.639,0,1.156,0.517,1.156,1.154v38.532C74.228,87.387,73.712,87.903,73.073,87.903z M36.288,85.593h35.631v-36.22H36.288
					V85.593z"/>
				<path fill="#E8D1DF" d="M42.538,1.155h23.131v98.58H42.538V1.155z"/>
				<path fill="#CC9ABA" d="M58.024,1.221h7.645v98.515h-7.645V1.221z"/>
				<path fill="#FD919E" d="M3.903,56.603l21.191,8.246h17.443V48.217H1.155L3.903,56.603z"/>
				<path fill="#FD919E" d="M1.155,17.786h41.383V1.155H25.095L3.903,9.401L1.155,17.786z"/>
				<path fill="#7FD38E" d="M65.669,25.605h12.717v7.451H65.669V25.605z"/>
				<path fill="#7FD38E" d="M82.597,40.834c-2.326,0-4.211-1.886-4.211-4.211V22.04c0-2.325,1.885-4.211,4.211-4.211
					s4.211,1.886,4.211,4.211v14.583C86.808,38.948,84.923,40.834,82.597,40.834z"/>
				<g>
					<path fill="#4C4372" d="M65.669,100.892H42.538c-0.637,0-1.154-0.518-1.154-1.156V1.155C41.384,0.517,41.901,0,42.538,0h23.131
						c0.637,0,1.154,0.517,1.154,1.155v98.58C66.823,100.374,66.306,100.892,65.669,100.892z M43.694,98.58h20.818V2.312H43.694
						V98.58z"/>
					<path fill="#4C4372" d="M42.538,66.005H25.095c-0.143,0-0.285-0.027-0.418-0.079L3.485,57.679
						c-0.322-0.126-0.57-0.389-0.678-0.717l-2.75-8.384c-0.115-0.353-0.055-0.738,0.162-1.038c0.219-0.3,0.564-0.477,0.936-0.477
						h41.383c0.639,0,1.156,0.517,1.156,1.154v16.631C43.694,65.487,43.177,66.005,42.538,66.005z M25.312,63.694h16.072V49.373
						H2.749l2.082,6.351L25.312,63.694z"/>
					<path fill="#4C4372" d="M42.538,18.941H1.155c-0.371,0-0.717-0.178-0.936-0.478c-0.217-0.3-0.277-0.687-0.162-1.038l2.75-8.383
						c0.107-0.329,0.355-0.592,0.678-0.718l21.191-8.247C24.81,0.027,24.952,0,25.095,0h17.443c0.639,0,1.156,0.517,1.156,1.155
						v16.632C43.694,18.425,43.177,18.941,42.538,18.941z M2.749,16.631h38.635V2.312H25.312L4.831,10.28L2.749,16.631z"/>
					<path fill="#4C4372" d="M78.386,34.212H65.669c-0.639,0-1.156-0.518-1.156-1.155v-7.451c0-0.637,0.518-1.155,1.156-1.155
						h12.717c0.637,0,1.154,0.518,1.154,1.155v7.451C79.54,33.694,79.022,34.212,78.386,34.212z M66.823,31.901h10.406v-5.141
						H66.823V31.901z"/>
					<path fill="#4C4372" d="M82.597,41.989c-2.959,0-5.367-2.407-5.367-5.366V22.04c0-2.959,2.408-5.366,5.367-5.366
						s5.365,2.407,5.365,5.366v14.583C87.962,39.582,85.556,41.989,82.597,41.989z M82.597,18.985c-1.686,0-3.057,1.371-3.057,3.055
						v14.583c0,1.686,1.371,3.056,3.057,3.056s3.057-1.37,3.057-3.056V22.04C85.653,20.356,84.282,18.985,82.597,18.985z"/>
					<path fill="#4C4372" d="M49.396,12.02h-6.738c-0.639,0-1.156-0.544-1.156-1.182c0-0.639,0.518-1.183,1.156-1.183h6.738
						c0.639,0,1.156,0.544,1.156,1.183C50.552,11.476,50.034,12.02,49.396,12.02z"/>
					<path fill="#4C4372" d="M49.396,27.784h-6.738c-0.639,0-1.156-0.544-1.156-1.182c0-0.64,0.518-1.183,1.156-1.183h6.738
						c0.639,0,1.156,0.543,1.156,1.183C50.552,27.24,50.034,27.784,49.396,27.784z"/>
					<path fill="#4C4372" d="M49.396,43.548h-6.738c-0.639,0-1.156-0.543-1.156-1.182c0-0.638,0.518-1.183,1.156-1.183h6.738
						c0.639,0,1.156,0.545,1.156,1.183C50.552,43.005,50.034,43.548,49.396,43.548z"/>
					<path fill="#4C4372" d="M49.396,59.313h-6.738c-0.639,0-1.156-0.544-1.156-1.183c0-0.638,0.518-1.182,1.156-1.182h6.738
						c0.639,0,1.156,0.544,1.156,1.182C50.552,58.769,50.034,59.313,49.396,59.313z"/>
					<path fill="#4C4372" d="M49.396,75.077h-6.738c-0.639,0-1.156-0.544-1.156-1.182c0-0.639,0.518-1.184,1.156-1.184h6.738
						c0.639,0,1.156,0.545,1.156,1.184C50.552,74.533,50.034,75.077,49.396,75.077z"/>
					<path fill="#4C4372" d="M49.396,90.841h-6.738c-0.639,0-1.156-0.543-1.156-1.183c0-0.638,0.518-1.182,1.156-1.182h6.738
						c0.639,0,1.156,0.544,1.156,1.182C50.552,90.298,50.034,90.841,49.396,90.841z"/>
				</g>
			</g>
		</g>
	</g>
</g>
<g id="Layer_2">
</g>
<g id="Layer_3">
</g>
<g id="Layer_4">
</g>
<g id="Layer_5">
</g>
</svg>
