<?xml version="1.0" encoding="utf-8"?>
<!-- Generator: Adobe Illustrator 16.0.0, SVG Export Plug-In . SVG Version: 6.00 Build 0)  -->
<!DOCTYPE svg PUBLIC "-//W3C//DTD SVG 1.1//EN" "http://www.w3.org/Graphics/SVG/1.1/DTD/svg11.dtd">
<svg version="1.1" xmlns="http://www.w3.org/2000/svg" xmlns:xlink="http://www.w3.org/1999/xlink" x="0px" y="0px" width="114px"
	 height="99.506px" viewBox="0 0 114 99.506" enable-background="new 0 0 114 99.506" xml:space="preserve">
<g id="Layer_1">
	<g>
		<g>
			<g>
				<rect x="40" y="2" fill="#FD919E" width="33" height="33"/>
				<rect x="68" fill="#E8677D" width="4" height="34"/>
				<rect x="39.5" y="1.5" fill="none" stroke="#4C4372" stroke-width="3" stroke-miterlimit="10" width="34" height="34"/>
			</g>
			<g>
				<polygon fill="#D3E6F8" points="20,12 20,31 1,31 1,35 24,35 24,12 				"/>
				<rect x="1.5" y="12.5" fill="none" stroke="#4C4372" stroke-width="3" stroke-miterlimit="10" width="23" height="23"/>
			</g>
			<g>
				<polygon fill="#D3E6F8" points="108,12 108,31 89,31 89,35 112,35 112,12 				"/>
				<rect x="89.5" y="12.5" fill="none" stroke="#4C4372" stroke-width="3" stroke-miterlimit="10" width="23" height="23"/>
			</g>
			<path fill="#FFFFFF" d="M61,61.227C61,63.863,58.863,66,56.227,66h-0.453C53.137,66,51,63.863,51,61.227V28.773
				C51,26.137,53.137,24,55.773,24h0.453C58.863,24,61,26.137,61,28.773V61.227z"/>
			<g>
				<path fill="#F9D0B4" d="M85.955,47.363c-1.809,0-3.051,1.473-3.051,3.277v8.195c0,0.903-1.131,1.638-2.035,1.638
					s-2.035-0.734-2.035-1.638V47.363c0-1.805-1.242-3.277-3.053-3.277c-1.809,0-3.051,1.473-3.051,3.277v11.473
					c0,0.903-0.621,1.638-1.527,1.638c-0.904,0-1.525-0.734-1.525-1.638v-14.75c0-1.806-1.752-3.276-3.561-3.276
					c-1.811,0-3.561,1.471-3.561,3.276v14.75c0,0.903-0.623,1.638-1.527,1.638s-1.525-0.734-1.525-1.638V27.699
					c0-1.806-1.242-3.277-3.053-3.277c-1.809,0-3.053,1.472-3.053,3.277v40.968c0,0.567-0.48,1.096-0.963,1.394
					c-0.477,0.298-1.178,0.325-1.686,0.072l-11.428-5.69c-0.908-0.452-1.941-0.69-2.955-0.69c-1.645,0-2.994,1.337-2.994,2.982
					c0,0.814,0.307,1.566,0.869,2.127l21.193,21.191c4.17,4.176,9.678,6.474,15.58,6.474c9.941,0,17.992-8.086,17.992-18.026V50.641
					C89.008,48.836,87.766,47.363,85.955,47.363z"/>
				<path fill="#F9A66E" d="M85.955,47.363c-0.816,0-1.51,0.313-2.033,0.809c0.635,0.602,1.016,1.48,1.016,2.469V78.5
					c0,9.293-7.037,16.961-16.074,17.921c0.711,0.069,1.428,0.105,2.152,0.105c9.941,0,17.992-8.086,17.992-18.026V50.641
					C89.008,48.836,87.766,47.363,85.955,47.363z"/>
			</g>
			<g>
				<g>
					<path fill="#4C4372" d="M85.287,44.74c-1.324,0-2.559,0.402-3.582,1.089c-0.883-2.507-3.277-4.311-6.082-4.311
						c-1.324,0-2.559,0.402-3.584,1.089c-0.883-2.507-3.275-4.311-6.082-4.311c-1.172,0-2.273,0.315-3.221,0.867V28.633
						c0-3.554-2.891-6.443-6.443-6.443s-6.443,2.89-6.443,6.443v37.662l-8.855-4.43c-1.334-0.667-2.828-1.018-4.32-1.018
						c-3.395,0-6.152,2.761-6.152,6.173c0,1.645,0.641,3.188,1.803,4.352l20.83,20.83c4.707,4.71,10.973,7.304,17.635,7.304
						c11.547,0,20.941-9.394,20.941-20.94V51.183C91.73,47.63,88.84,44.74,85.287,44.74z M88.508,78.565
						c0,9.771-7.951,17.719-17.721,17.719c-5.803,0-11.254-2.259-15.352-6.362l-20.832-20.83c-0.555-0.551-0.861-1.289-0.861-2.091
						c0-1.617,1.314-2.932,2.932-2.932c0.996,0,1.988,0.235,2.881,0.679l11.188,5.593c0.5,0.248,1.096,0.222,1.566-0.071
						c0.473-0.293,0.764-0.812,0.764-1.369V28.633c0-1.775,1.443-3.222,3.221-3.222c1.779,0,3.221,1.446,3.221,3.222v30.604
						c0,0.889,0.723,1.61,1.611,1.61s1.611-0.722,1.611-1.61V44.74c0-1.775,1.443-3.222,3.221-3.222
						c1.779,0,3.223,1.446,3.223,3.222v14.497c0,0.889,0.721,1.61,1.609,1.61c0.891,0,1.611-0.722,1.611-1.61V47.962
						c0-1.775,1.443-3.222,3.223-3.222c1.777,0,3.221,1.446,3.221,3.222v11.275c0,0.889,0.721,1.61,1.611,1.61
						c0.889,0,1.609-0.722,1.609-1.61v-8.055c0-1.774,1.443-3.221,3.223-3.221c1.777,0,3.221,1.446,3.221,3.221V78.565z"/>
				</g>
			</g>
		</g>
	</g>
</g>
<g id="Layer_2">
</g>
<g id="Layer_3">
</g>
<g id="Layer_4">
</g>
<g id="Layer_5">
</g>
</svg>
